<svg width="24" height="24" viewBox="0 0 24 24" fill="none" xmlns="http://www.w3.org/2000/svg">
<path d="M18.6195 3.31845C19.008 3.31845 19.329 3.60713 19.3798 3.98168L19.3868 4.0858V6.97966C19.3868 7.36814 19.0982 7.68919 18.7236 7.74L18.6195 7.74701H15.7256C15.3018 7.74701 14.9583 7.40345 14.9583 6.97966C14.9583 6.59118 15.247 6.27013 15.6215 6.21931L15.7256 6.21231L16.7044 6.21185C13.7917 3.8711 9.5221 4.05212 6.81931 6.75491C3.92251 9.65171 3.92251 14.3483 6.81931 17.2451C9.71611 20.1419 14.4128 20.1419 17.3096 17.2451C19.0725 15.4822 19.8106 12.9926 19.3476 10.5893C19.2674 10.1731 19.5398 9.77079 19.9559 9.69062C20.3721 9.61044 20.7744 9.8828 20.8546 10.2989C21.413 13.1972 20.5217 16.2034 18.3947 18.3303C14.8986 21.8265 9.23025 21.8265 5.73411 18.3303C2.23798 14.8342 2.23798 9.16585 5.73411 5.66971C9.05472 2.3491 14.3349 2.18239 17.8523 5.16957L17.8521 4.0858C17.8521 3.662 18.1957 3.31845 18.6195 3.31845Z" fill="white"/>
</svg>
