<svg width="24" height="24" viewBox="0 0 16 20" fill="none" xmlns="http://www.w3.org/2000/svg">
<path d="M13.7499 0.000976562C14.9407 0.000976562 15.9155 0.926138 15.9947 2.09693L15.9999 2.25098V17.749C15.9999 18.9399 15.0747 19.9147 13.9039 19.9939L13.7499 19.999H2.25C1.05914 19.999 0.0843551 19.0739 0.00519085 17.9031L0 17.749V2.25098C0 1.06011 0.925161 0.0853317 2.09595 0.00616741L2.25 0.000976562H13.7499ZM13.7499 1.50098H2.25C1.8703 1.50098 1.55651 1.78313 1.50685 2.14921L1.5 2.25098V17.749C1.5 18.1287 1.78215 18.4425 2.14823 18.4922L2.25 18.499H13.7499C14.1296 18.499 14.4434 18.2169 14.493 17.8508L14.4999 17.749V2.25098C14.4999 1.87128 14.2177 1.55749 13.8516 1.50782L13.7499 1.50098Z" fill="#8A8886"/>
<path d="M2.99994 13.75C2.99994 13.3358 3.33572 13 3.74994 13H12.2499C12.6642 13 12.9999 13.3358 12.9999 13.75C12.9999 14.1642 12.6642 14.5 12.2499 14.5H3.74994C3.33572 14.5 2.99994 14.1642 2.99994 13.75Z" fill="#8A8886"/>
<path d="M2.99994 5.75001C2.99994 5.3358 3.33572 5.00001 3.74994 5.00001H12.2499C12.6642 5.00001 12.9999 5.3358 12.9999 5.75001C12.9999 6.16422 12.6642 6.50001 12.2499 6.50001H3.74994C3.33572 6.50001 2.99994 6.16422 2.99994 5.75001Z" fill="#8A8886"/>
<path d="M2.99994 9.75001C2.99994 9.3358 3.33572 9.00001 3.74994 9.00001H12.2499C12.6642 9.00001 12.9999 9.3358 12.9999 9.75001C12.9999 10.1642 12.6642 10.5 12.2499 10.5H3.74994C3.33572 10.5 2.99994 10.1642 2.99994 9.75001Z" fill="#8A8886"/>
</svg>
