<svg xmlns="http://www.w3.org/2000/svg" width="24" height="40" viewBox="0 0 24 40" fill="none">
<path d="M12 10C17.523 10 22 14.478 22 20C22 25.522 17.523 30 12 30C6.477 30 2 25.522 2 20C2 14.478 6.477 10 12 10ZM12 11.667C7.405 11.667 3.667 15.405 3.667 20C3.667 24.595 7.405 28.333 12 28.333C16.595 28.333 20.333 24.595 20.333 20C20.333 15.405 16.595 11.667 12 11.667ZM12 23.5C12.5523 23.5 13 23.9477 13 24.5C13 25.0523 12.5523 25.5 12 25.5C11.4477 25.5 11 25.0523 11 24.5C11 23.9477 11.4477 23.5 12 23.5ZM12 14.75C13.5188 14.75 14.75 15.9812 14.75 17.5C14.75 18.5108 14.4525 19.074 13.6989 19.8586L13.5303 20.0303C12.9084 20.6522 12.75 20.9163 12.75 21.5C12.75 21.9142 12.4142 22.25 12 22.25C11.5858 22.25 11.25 21.9142 11.25 21.5C11.25 20.4892 11.5475 19.926 12.3011 19.1414L12.4697 18.9697C13.0916 18.3478 13.25 18.0837 13.25 17.5C13.25 16.8096 12.6904 16.25 12 16.25C11.3528 16.25 10.8205 16.7419 10.7565 17.3722L10.75 17.5C10.75 17.9142 10.4142 18.25 10 18.25C9.58579 18.25 9.25 17.9142 9.25 17.5C9.25 15.9812 10.4812 14.75 12 14.75Z" fill="#111827"/>
</svg>
