<svg width="258" height="258" viewBox="0 0 258 258" fill="none" xmlns="http://www.w3.org/2000/svg">
  <g clip-path="url(#clip0_571_3643)">
    <path
      d="M126.216 32.969a57.472 57.472 0 018.444-6.879 7.947 7.947 0 01-.16-1.59v-8h-64v8c0 4.4-3.6 8-8 8s-8-3.6-8-8v-8c-8.8 0-16 7.201-16 16v16h76.553a56.357 56.357 0 0111.163-15.531z"
      fill="#D97706" />
    <path fill-rule="evenodd" clip-rule="evenodd"
      d="M70.499 8.5v16c0 4.4-3.6 8-8 8s-8-3.6-8-8v-16c0-4.4 3.6-8 8-8s8 3.6 8 8zM142.5.5c4.4 0 8 3.6 8 8V18.748a56.62 56.62 0 00-15.84 7.342 7.947 7.947 0 01-.16-1.59v-16c0-4.4 3.6-8 8-8z"
      fill="#F59E0B" />
    <path
      d="M154.21 139.589l-19.888-19.087-1.375-1.319c-.862-.836-1.668-1.62-2.448-2.379a1054.19 1054.19 0 01-4.283-4.19c-7.926-7.818-13.221-17.536-15.476-28.112H90.5v-24h20.371a55.163 55.163 0 014.182-12.002H38.5v80c0 8.801 7.2 16 16 16h96c2.808 0 5.448-.738 7.748-2.021a17.795 17.795 0 01-4.038-2.89zm-79.711-19.087h-24v-24h24v24zm0-36.002h-24v-24h24v24zm40.001 36.002h-24v-24h24v24z"
      fill="#F59E0B" />
    <path
      d="M203.979 35.816C193.63 25.605 180.065 20.5 166.502 20.5a53.724 53.724 0 00-16.002 2.444 52.879 52.879 0 00-14.041 6.777 53.076 53.076 0 00-7.434 6.096 52.331 52.331 0 00-9.475 12.684 51.617 51.617 0 00-5.051 14.167 51.865 51.865 0 000 20.246c1.958 9.838 6.798 19.23 14.525 26.852.461.455.955.938 1.474 1.447 1.504 1.475 3.249 3.174 5.233 5.098l4.367 4.191 16.88 16.201a13.658 13.658 0 004.912 2.996 13.9 13.9 0 004.61.8c3.432 0 6.864-1.264 9.52-3.791a4025.74 4025.74 0 0020.733-19.893l7.224-7.05a51.799 51.799 0 00.002-73.949zM166.5 89.452h-.003c-4.88 0-9.213-2.277-11.997-5.803-2.009-2.544-3.217-5.735-3.217-9.21 0-3.475 1.208-6.666 3.217-9.21a15.247 15.247 0 0111.997-5.803h.003c8.406.001 15.217 6.723 15.217 15.014s-6.811 15.01-15.217 15.012z"
      fill="#D97706" />
  </g>
  <g clip-path="url(#clip1_571_3643)" fill-rule="evenodd" clip-rule="evenodd" fill="#F59E0B">
    <path
      d="M201.097 221.737c-1.641 3.036-3.615 5.943-4.843 9.136-2.048 5.319-3.195 11.016-5.547 16.176-1.407 3.084-3.932 6.156-6.761 7.986-6.007 3.882-13.123-.409-12.117-7.444.596-4.164 2.799-8.439 5.331-11.894 2.697-3.679 6.704-6.381 9.995-9.654 1.342-1.338 2.308-3.052 3.016-4.902-7.468 5.537-8.671 5.594-13.576.905-4.455 1.114-8.418 2.715-12.465 2.955-4.368.259-7.833-2.234-9.584-6.473-1.545-3.744-1.405-6.904 2.97-8.844 3.315-1.47 5.462-3.78 3.345-9.258-2.553 2.606-5.008 4.208-6.157 6.474-2.328 4.584-3.695 9.653-5.988 14.259-.848 1.704-3.125 3.552-4.862 3.668-1.213.081-3.209-2.471-3.789-4.205-.823-2.454-.662-5.236-.913-7.779-3.378-1.263-5.01-.361-6.322 2.862-2.397 5.879-6.743 9.707-13.548 9.435-6.666-.267-10.229-4.272-12.011-10.378-.274-.944-1.687-2.406-2.178-2.264-1.111.323-2.134 1.373-2.916 2.348-2.091 2.605-3.53 6.148-6.178 7.782-2.784 1.719-6.762 2.538-10.052 2.185-6.29-.675-10.113-6.762-10.08-14.431.04-8.826 5.003-15.824 12.324-17.376 6.569-1.394 11.57 1.632 14.672 8.688.484 1.102 1.572 2.659 2.431 2.694 1.04.042 2.342-1.143 3.159-2.109 1.257-1.482 1.992-3.423 3.309-4.833 7.218-7.725 17.928-5.72 22.146 3.933.563 1.29 2.154 2.131 3.267 3.181.831-1.312 2.082-2.524 2.424-3.955 2.286-9.518 4.077-19.166 6.699-28.586.906-3.255 3.262-6.462 5.763-8.845 5.269-5.022 12.309-2.669 12.907 4.561.383 4.59-.417 9.867-2.472 13.934-3.183 6.298-7.938 11.793-11.922 17.7-1.167 1.731-1.98 3.702-2.016 6.036 2.403-3.038 4.523-6.366 7.274-9.047 4.36-4.249 9.091-4.677 12.465-1.744 3.295 2.865 3.811 8.836.747 13.3-1.586 2.312-3.845 4.158-6.717 7.182 2.319.837 4.962 2.729 6.228 2.051 2.563-1.371 5.214-3.791 6.307-6.413 1.544-3.705 1.632-7.999 2.508-12.007.297-1.364.747-3.236 1.734-3.789 1.839-1.029 4.124-1.262 6.222-1.826.263 1.587.932 3.233.714 4.751-.804 5.572-1.903 11.101-2.89 16.648l1.717.831c1.274-1.429 2.999-2.659 3.729-4.327 2.001-4.568 3.228-9.501 5.501-13.91.973-1.888 3.778-2.833 5.751-4.206.636 1.917 1.972 3.908 1.779 5.738-.617 5.814-1.803 11.568-2.808 17.571 8.446-2.978 12.469-8.027 11.031-17.028-.29-1.817 1.899-4.788 3.745-5.91 1.143-.695 3.797 1.093 5.772 1.767-.021.523-.039 1.047-.061 1.569.817-.59 1.617-1.203 2.455-1.761 5.955-3.969 11.69-1.893 13.764 4.975 3.215 10.641-4.528 22.454-16.944 25.698-1.156 6.056-2.112 12.219-3.585 18.258-.747 3.065-1.8 6.507-3.873 8.666-1.939 2.019-5.742 3.945-8.106 3.369-2.265-.551-5.403-4.482-5.248-6.729.489-7.188 2.277-14.295 3.688-21.408.336-1.685 1.164-3.272 1.767-4.905-.709-.345-1.417-.69-2.127-1.032zm16.451-4.229l1.993.539c5.336-2.4 7.152-7.205 7.577-12.656.114-1.488-1.148-3.084-1.776-4.629-1.538.641-4.13.962-4.436 1.974-1.459 4.823-2.298 9.83-3.358 14.772zM89.733 200.765c-4.614 2.649-6.967 9.657-3.966 13.908 1 1.415 5.052 2.573 5.826 1.844 1.524-1.434 2.645-4.436 2.267-6.483-.572-3.101-2.562-5.942-4.127-9.269zm31.131.06c-4.786 2.61-7.075 10.068-3.735 14.244 1.032 1.29 4.899 2.219 5.55 1.521 1.487-1.594 2.729-4.465 2.357-6.502-.569-3.104-2.589-5.94-4.172-9.263zm28.18-8.743c8.288-9.032 10.898-17.855 7.301-24.212-4.68 7.266-5.669 15.098-7.301 24.212zm55.224 56.847c.815.124 1.629.247 2.442.372l3.173-23.406-1.758-.255c-2.175 7.611-5.828 14.976-3.857 23.289zm-16.084-13.848c-8.52 5.073-10.721 9.865-7.299 16.18 2.76-6.115 5.029-11.148 7.299-16.18zM64.806 197.192c9.43 7.559 8.901 18.372-1.606 23.334-6.059 2.861-13.334 3.113-20.027 4.688-2.577.606-5.014 1.804-7.593 2.394-2.169.498-4.656 1.129-6.6.483-1.093-.362-2.134-3.306-1.891-4.887a1210.21 1210.21 0 016.52-38.502c.785-4.212 4.224-5.126 7.907-4.11 4.197 1.158 1.959 4.203 1.476 6.604-1.958 9.758-3.965 19.506-6.317 31.052 6.996-.966 12.594-1.301 17.95-2.624 4.025-.993 7.027-4.042 6.452-8.67-.594-4.791-4.453-6.01-8.607-6.451-4.636-.492-6.324-2.744-4.057-5.781.781-1.05 2.6-1.469 4.032-1.865 3.577-.99 7.735-1 10.653-2.928 2.559-1.69 4.854-5.302 5.268-8.338.546-4.028-3.137-6.059-6.854-6.933-11.293-2.655-21.898-.227-32.227 4.405-2.642 1.185-5.996 4.907-8.156.471-1.929-3.964 2.075-5.919 5.15-7.384 12.105-5.765 24.802-7.715 38.019-5.214 9.177 1.735 14.172 6.358 14.802 13.147.646 6.969-3.363 12.458-11.72 16.038-.642.276-1.285.537-2.574 1.071z" />
  </g>
  <defs>
    <clipPath id="clip0_571_3643">
      <path fill="#fff" transform="translate(38.5 .5)" d="M0 0h181v144H0z" />
    </clipPath>
    <clipPath id="clip1_571_3643">
      <path fill="#fff" transform="translate(20.5 160.5)" d="M0 0h216v97H0z" />
    </clipPath>
  </defs>
</svg>
